<?xml version="1.0" encoding="UTF-8" ?>
<!DOCTYPE svg PUBLIC "-//W3C//DTD SVG 1.1//EN" "http://www.w3.org/Graphics/SVG/1.1/DTD/svg11.dtd">
<svg width="512pt" height="512pt" viewBox="0 0 512 512" version="1.1" xmlns="http://www.w3.org/2000/svg">
<g id="#295892ff">
<path fill="#295892" opacity="1.00" d=" M 311.27 72.14 C 311.79 72.78 311.79 72.78 311.27 72.14 Z" />
<path fill="#295892" opacity="1.00" d=" M 376.44 153.48 C 386.25 136.60 395.97 119.65 405.84 102.80 C 418.49 124.08 430.71 145.62 443.23 166.99 C 449.76 178.53 456.77 189.83 463.08 201.50 C 463.79 203.14 464.56 204.75 465.40 206.34 C 455.52 223.42 445.86 240.65 435.62 257.51 C 416.51 224.26 397.09 191.19 377.86 158.02 C 377.28 156.58 375.25 155.10 376.44 153.48 Z" />
<path fill="#295892" opacity="1.00" d=" M 147.87 223.81 C 174.04 218.56 200.18 213.12 226.36 207.93 C 276.26 217.82 326.23 227.36 376.08 237.49 C 347.77 243.54 319.33 249.04 290.97 254.91 C 289.33 255.35 287.63 255.25 285.96 255.18 C 247.04 247.28 208.03 239.85 169.08 232.09 C 158.04 230.03 147.07 227.61 136.01 225.72 C 140.05 225.85 143.93 224.51 147.87 223.81 Z" />
<path fill="#295892" opacity="1.00" d=" M 71.73 262.82 C 72.93 260.69 74.22 258.61 75.61 256.61 C 95.18 290.00 114.49 323.56 134.07 356.95 C 134.66 358.03 135.75 359.42 134.75 360.63 C 125.03 377.50 115.23 394.32 105.48 411.18 C 89.28 383.81 73.52 356.18 57.47 328.71 C 57.42 328.62 57.31 328.44 57.26 328.35 C 53.40 321.62 49.36 314.99 45.63 308.19 C 54.14 292.96 63.09 277.98 71.73 262.82 Z" />
<path fill="#295892" opacity="1.00" d=" M 215.98 305.57 C 219.78 304.91 223.52 303.75 227.39 303.71 C 276.94 313.54 326.54 323.09 376.07 333.04 C 358.44 337.07 340.63 340.27 322.94 344.03 C 260.64 356.59 198.40 369.45 136.07 381.89 C 135.91 361.87 136.04 341.85 136.01 321.82 C 162.67 316.42 189.33 311.02 215.98 305.57 Z" />
</g>
<g id="#a1e0ffff">
<path fill="#a1e0ff" opacity="1.00" d=" M 105.71 103.06 C 115.70 120.11 125.55 137.24 135.56 154.29 C 115.48 188.33 95.81 222.63 75.61 256.61 C 74.22 258.61 72.93 260.69 71.73 262.82 C 63.09 277.98 54.14 292.96 45.63 308.19 C 35.79 290.94 25.65 273.87 15.76 256.66 C 45.81 205.50 75.80 154.30 105.71 103.06 Z" />
<path fill="#a1e0ff" opacity="1.00" d=" M 136.12 130.07 C 216.10 145.64 296.01 161.57 376.00 177.11 C 376.05 197.24 375.89 217.37 376.08 237.49 C 326.23 227.36 276.26 217.82 226.36 207.93 C 196.24 201.99 166.12 196.06 136.00 190.16 C 136.08 170.13 135.84 150.09 136.12 130.07 Z" />
<path fill="#a1e0ff" opacity="1.00" d=" M 463.08 201.50 C 473.95 220.06 484.71 238.69 495.55 257.28 C 465.45 308.43 435.56 359.70 405.52 410.89 C 395.67 393.78 385.64 376.77 375.79 359.65 C 395.78 325.64 415.42 291.40 435.62 257.51 C 445.86 240.65 455.52 223.42 465.40 206.34 C 464.56 204.75 463.79 203.14 463.08 201.50 Z" />
<path fill="#a1e0ff" opacity="1.00" d=" M 136.01 225.72 C 147.07 227.61 158.04 230.03 169.08 232.09 C 208.03 239.85 247.04 247.28 285.96 255.18 C 316.00 260.85 345.98 266.96 376.00 272.77 C 376.04 292.86 375.91 312.95 376.07 333.04 C 326.54 323.09 276.94 313.54 227.39 303.71 C 200.90 298.55 174.43 293.26 147.94 288.12 C 143.98 287.41 140.08 286.29 136.04 286.07 C 135.95 265.95 136.02 245.84 136.01 225.72 Z" />
</g>
<g id="#567f9b3f">
<path fill="#567f9b" opacity="0.25" d=" M 57.26 328.35 C 57.31 328.44 57.42 328.62 57.47 328.71 C 57.42 328.62 57.31 328.44 57.26 328.35 Z" />
</g>
</svg>
